<svg xmlns="http://www.w3.org/2000/svg" viewBox="0 0 372.03 292.39"><defs><style>.cls-1{fill:#8fa3bd;}</style></defs><g id="Layer_2" data-name="Layer 2"><g id="Shapes"><g id="_23" data-name="23"><path class="cls-1" d="M358.3,12.3C329-10.89,259.72,3.61,186.49,44.12,113.64,2.93,44.48-12.22,15,10.7S4.13,88,55.92,145.59C3.6,202.66-15.55,256.9,13.73,280.09s98.58,8.69,171.81-31.82c72.85,41.19,142,56.34,171.51,33.42s10.85-77.33-40.94-134.89C368.43,89.73,387.58,35.49,358.3,12.3ZM338.17,27.94c26.75,21.19,14.65,66.85-25.48,115.11a494.56,494.56,0,0,0-56.15-51.67,548.91,548.91,0,0,0-65.3-44.54C253.13,15.81,311.43,6.76,338.17,27.94ZM35,26.53C61.9,5.6,120.12,15.2,181.71,46.79A550.28,550.28,0,0,0,116,90.73a494.17,494.17,0,0,0-56.62,51.14C19.7,93.24,8,47.47,35,26.53Zm-1.1,237.92c-26.74-21.19-14.64-66.84,25.49-115.1A493.53,493.53,0,0,0,115.49,201a548.91,548.91,0,0,0,65.3,44.54C118.9,276.58,60.6,285.63,33.86,264.45Zm84.3-65.52A388.55,388.55,0,0,1,62.5,145.62a388.6,388.6,0,0,1,56.16-52.79,444.94,444.94,0,0,1,67.81-43.55,445.49,445.49,0,0,1,67.4,44.18,388.55,388.55,0,0,1,55.66,53.31,389,389,0,0,1-56.15,52.79,444.39,444.39,0,0,1-67.81,43.55A444.31,444.31,0,0,1,118.16,198.93Zm218.91,66.93c-26.94,20.93-85.16,11.34-146.75-20.26A549.08,549.08,0,0,0,256,201.66a493.33,493.33,0,0,0,56.62-51.14C352.33,199.15,364,244.92,337.07,265.86Z"/><path class="cls-1" d="M186,69.28a76.9,76.9,0,0,0-50.09,135.27,3.85,3.85,0,0,0,.63.53,76.59,76.59,0,0,0,49.46,18h.48a76.55,76.55,0,0,0,48.63-17.73,9.53,9.53,0,0,0,2.33-1.24,3,3,0,0,0,.82-1.53A76.9,76.9,0,0,0,186,69.28Zm68.8,72.92H220.9a111.8,111.8,0,0,0-6.81-34.92A73.52,73.52,0,0,0,233.27,96.1,68.79,68.79,0,0,1,254.82,142.2ZM227.17,91a68.11,68.11,0,0,1-16,9.23A87.47,87.47,0,0,0,196.8,78.12,68.64,68.64,0,0,1,227.17,91Zm-68,51.23A105.78,105.78,0,0,1,165.36,110,78.67,78.67,0,0,0,186,112.73a75.71,75.71,0,0,0,20.55-2.88,104.42,104.42,0,0,1,6.33,32.35Zm53.77,8a105.41,105.41,0,0,1-6.35,32.57,78.54,78.54,0,0,0-41.08.27,105.39,105.39,0,0,1-6.35-32.84ZM186,78.27a77.24,77.24,0,0,1,17.59,24.52,67.79,67.79,0,0,1-35.38.2A73.73,73.73,0,0,1,186,78.27Zm-11-.12a85.28,85.28,0,0,0-14.41,22.36,67.77,67.77,0,0,1-16.28-9.16A68.64,68.64,0,0,1,175.06,78.15ZM138.34,96.51a76.17,76.17,0,0,0,19.46,11,113,113,0,0,0-6.67,34.72H117.21A68.77,68.77,0,0,1,138.34,96.51Zm-21.13,53.68h33.92a111.83,111.83,0,0,0,7,35.31,76.5,76.5,0,0,0-19.23,10.87A68.79,68.79,0,0,1,117.21,150.19Zm27.73,51.29a68.59,68.59,0,0,1,16.05-9,87.43,87.43,0,0,0,14.24,21.83A68.57,68.57,0,0,1,144.94,201.48ZM186,214.12A73.78,73.78,0,0,1,168.39,190a67.59,67.59,0,0,1,35.15,0A73.49,73.49,0,0,1,186,214.12Zm10.95.12a85.15,85.15,0,0,0,14.15-21.76,68.09,68.09,0,0,1,16,9A68.49,68.49,0,0,1,197,214.24ZM233.62,196a76.34,76.34,0,0,0-19.49-10.78,113.08,113.08,0,0,0,6.77-35h33.92A68.79,68.79,0,0,1,233.62,196Z"/></g></g></g></svg>