<svg xmlns="http://www.w3.org/2000/svg" viewBox="0 0 243.74 243.72"><defs><style>.cls-1{fill:#8fa3bd;}</style></defs><g id="Layer_2" data-name="Layer 2"><g id="Shapes"><g id="_14" data-name="14"><path class="cls-1" d="M228.67,63.24A121.83,121.83,0,0,0,4.93,87.63a1.13,1.13,0,0,0-.19.36A30.94,30.94,0,0,0,4,91.09,121.8,121.8,0,0,0,180.45,228.65a121,121,0,0,0,57.5-70c.3-.8.59-1.61.83-2.45a.59.59,0,0,0,0-.23s0,0,0,0A121,121,0,0,0,228.67,63.24Zm12.71,49.44c.14,1.87.23,3.75.28,5.62-.2-1.38-.41-2.76-.67-4.1C241.14,113.69,241.25,113.19,241.38,112.68Zm-197.65,79A83.83,83.83,0,0,1,44,181.17,197.94,197.94,0,0,0,68.45,194.1c-.64,3.4-1.17,6.72-1.54,9.9A182.52,182.52,0,0,1,43.73,191.68Zm23,13.7q-.36,3.45-.47,6.66a176.76,176.76,0,0,1-21.59-11.42,63.43,63.43,0,0,1-.87-7.38A183.92,183.92,0,0,0,66.74,205.38ZM208.35,92.56c1-.45,1.92-.92,2.82-1.42a35.67,35.67,0,0,0,7.61-5.49,126.66,126.66,0,0,1,9.66,24.62c.25.9.46,1.79.69,2.68a44,44,0,0,1-12.44,8.39A165.41,165.41,0,0,0,208.35,92.56Zm9.1,43.54a85,85,0,0,1-19.09,5.7c0-4.38-.17-8.81-.49-13.24a81.42,81.42,0,0,0,17.84-5.31Q216.88,129.72,217.45,136.1Zm-9.58-44.77c-.06-.15-.11-.29-.16-.43a167.18,167.18,0,0,0-13.5-26.52c.6-.28,1.2-.56,1.76-.87a25.54,25.54,0,0,0,5.28-3.77,135.09,135.09,0,0,1,16.89,24.65A35.82,35.82,0,0,1,207.87,91.33ZM174.44,115c-.1-5.41-.34-10.74-.71-16a104.83,104.83,0,0,0,18-1.45,195.23,195.23,0,0,1,3.6,19.28c.47,3.52.83,7,1.11,10.59a129.62,129.62,0,0,1-22.06,1.73Q174.58,122.15,174.44,115Zm-22.6-19.09a167.79,167.79,0,0,1-20.41-4.53l7.79-26.72a120.43,120.43,0,0,0,14.4,3.18C153.44,76.18,152.83,85.7,151.84,95.87Zm3-27.87a102.7,102.7,0,0,0,13.69,1.09,260.61,260.61,0,0,1,3.63,28.54A143,143,0,0,1,153,96C154,85.86,154.61,76.36,154.84,68ZM97.1,112.21c4.15-9.46,8.48-18.65,12.79-27.2a172.32,172.32,0,0,0,19.9,7.24L121.4,121A207.15,207.15,0,0,1,97.1,112.21ZM121,122.3l-3.78,13a222.94,222.94,0,0,1-25.95-9.41c1.71-4.17,3.47-8.32,5.26-12.42A208.89,208.89,0,0,0,121,122.3ZM96.09,111.76a175.06,175.06,0,0,1-21.32-11.2c5.34-8.83,11-17.28,16.83-25.09a144.26,144.26,0,0,0,17.25,9.09C104.57,93.09,100.25,102.27,96.09,111.76ZM95.56,113q-2.69,6.15-5.25,12.41a184.49,184.49,0,0,1-22.89-12c2.14-3.93,4.37-7.83,6.67-11.66A176.79,176.79,0,0,0,95.56,113Zm-5.74,13.64q-1.26,3.06-2.47,6.14c-.91,2.32-1.93,5-3,7.86a192.77,192.77,0,0,1-24.2-12.85q3.13-6.69,6.66-13.25A185.88,185.88,0,0,0,89.82,126.62Zm-5,15.72a231.49,231.49,0,0,0,27.42,10l-7.69,26.39a235.05,235.05,0,0,1-28.52-10.38C78.59,159.93,81.57,151.18,84.86,142.34Zm.47-1.29c1.74-4.65,3.58-9.33,5.48-14a221.4,221.4,0,0,0,26.07,9.47L112.65,151A230.3,230.3,0,0,1,85.33,141.05Zm32.82-4.15a222.23,222.23,0,0,0,27.06,6c-.9,5-1.88,9.92-2.91,14.81a230.46,230.46,0,0,1-28.38-6.31Zm.38-1.28,3.77-13a207.56,207.56,0,0,0,25.39,5.66c-.69,4.41-1.44,8.85-2.23,13.27A220.35,220.35,0,0,1,118.53,135.62Zm4.14-14.22,8.39-28.78a171.18,171.18,0,0,0,20.65,4.59c-1,9.52-2.23,19.59-3.81,29.79A206.61,206.61,0,0,1,122.67,121.4ZM130.16,91a170.85,170.85,0,0,1-19.67-7.14c4.64-9.12,9.25-17.48,13.6-24.65A121.21,121.21,0,0,0,138,64.25Zm-20.71-7.6a143,143,0,0,1-17-9,262,262,0,0,1,18.42-22.15A102,102,0,0,0,123,58.7C118.65,65.87,114.06,74.24,109.45,83.37Zm-18.3-9.74A103.45,103.45,0,0,1,76.9,62.87,179.8,179.8,0,0,1,100,44.2a74.35,74.35,0,0,0,9.55,7.29A261.61,261.61,0,0,0,91.15,73.63ZM75.92,62a65.46,65.46,0,0,1-9.49-11c.14-.09.27-.19.4-.29a166.23,166.23,0,0,1,25.6-15.07,47.57,47.57,0,0,0,6.62,7.66A179,179,0,0,0,75.92,62Zm0,1.82a105.05,105.05,0,0,0,14.41,10.9Q85.7,81,81.18,87.78q-4,6-7.62,12A127.35,127.35,0,0,1,55.9,86.48c2.13-2.84,4.35-5.64,6.65-8.36A190.3,190.3,0,0,1,76,63.79ZM72.88,101q-3.5,5.83-6.64,11.67A135.12,135.12,0,0,1,47.56,98.51q3.55-5.58,7.55-11A130.15,130.15,0,0,0,72.88,101ZM65.6,113.78Q62,120.46,59,127c-.87-.57-1.78-1.11-2.65-1.69a139.45,139.45,0,0,1-16.74-13c2.22-4.26,4.65-8.5,7.26-12.67A138,138,0,0,0,65.6,113.78Zm-6,15.28A194.35,194.35,0,0,0,83.86,141.9c-2.78,7.5-5.93,16.52-8.8,26a198.59,198.59,0,0,1-25.41-13.48A208.2,208.2,0,0,1,59.55,129.06Zm16,41.2A238.76,238.76,0,0,0,104,180.62l-6.62,22.69a231,231,0,0,1-27.62-10.06C71.17,186.11,73.11,178.35,75.5,170.26ZM105.3,181a241,241,0,0,0,29.62,6.59c-2.34,8.09-4.86,15.64-7.52,22.4a229.08,229.08,0,0,1-28.72-6.29Zm.56-1.91,7.69-26.39A230.92,230.92,0,0,0,142,159.05c-2,9.2-4.17,18.16-6.55,26.59A236.43,236.43,0,0,1,105.86,179.08Zm37.23-19.87a195.76,195.76,0,0,0,27.4,2.3,209.11,209.11,0,0,1-5.25,26.54,200.17,200.17,0,0,1-28.68-2.25C139.23,176.3,141.41,167,143.09,159.21Zm.28-1.31c.65-3,1.21-5.85,1.69-8.32.43-2.16.83-4.33,1.23-6.5a184.53,184.53,0,0,0,25.91,2.17q-.55,7.5-1.52,14.89A195.52,195.52,0,0,1,143.37,157.9Zm3.16-16.14c.81-4.43,1.55-8.87,2.25-13.26a175.71,175.71,0,0,0,24.17,2c-.12,4.44-.34,8.9-.65,13.35A189.56,189.56,0,0,1,146.53,141.76ZM149,127.17c1.58-10.24,2.88-20.3,3.85-29.79A142.52,142.52,0,0,0,172.26,99c.69,9.68,1,19.85.72,30.16A178.64,178.64,0,0,1,149,127.17ZM170,69.1a75.49,75.49,0,0,0,12-1,179.11,179.11,0,0,1,9.47,28.13,104.62,104.62,0,0,1-17.79,1.4A257.88,257.88,0,0,0,170,69.1Zm13.31-1.26A47.74,47.74,0,0,0,193,65,164.28,164.28,0,0,1,206.47,91.4c.07.15.12.32.19.47A65.64,65.64,0,0,1,192.74,96,180,180,0,0,0,183.29,67.84Zm10.23-4.56a136.66,136.66,0,0,0-18.28-23l.34-.17a14.25,14.25,0,0,0,2.71-1.92,150.37,150.37,0,0,1,22.08,20.54A25.49,25.49,0,0,1,193.52,63.28Zm-1.23.55a47,47,0,0,1-9.54,2.77,161.18,161.18,0,0,0-13.28-24.32,24.2,24.2,0,0,0,4.5-1.41A135.21,135.21,0,0,1,192.29,63.83Zm-10.89,3a76.28,76.28,0,0,1-11.67.92c-1.93-9.85-4.39-18.33-7.24-24.7a38.78,38.78,0,0,0,5.56-.51A158.49,158.49,0,0,1,181.4,66.84Zm-13.12.91a102.89,102.89,0,0,1-13.42-1.1c.22-10.19-.21-18.56-1.34-24.23a52,52,0,0,0,7.51.63C163.84,49.2,166.31,57.69,168.28,67.75Zm-14.63-1.27a120,120,0,0,1-14.05-3.13l6.56-22.53q3,.84,6,1.37C153.33,47.86,153.82,56.26,153.65,66.48ZM138.33,63a120.23,120.23,0,0,1-13.55-4.92c5.34-8.7,10.26-15.52,14.34-19.65,1.84.76,3.78,1.44,5.77,2.05Zm-14.68-5.41a100.17,100.17,0,0,1-11.9-6.29c7.06-7.43,13.71-13.26,19.39-16.93a55,55,0,0,0,6.67,3.5C133.81,42,129,48.86,123.65,57.56ZM110.52,50.5a73.37,73.37,0,0,1-9.35-7,158.77,158.77,0,0,1,24.32-13.32,39.61,39.61,0,0,0,4.42,3.41C124.08,37.4,117.44,43.23,110.52,50.5Zm-10.35-8A46.73,46.73,0,0,1,93.65,35a134.83,134.83,0,0,1,27.76-9.5,24.8,24.8,0,0,0,3,3.61A160.36,160.36,0,0,0,100.17,42.52Zm-7.26-8.6c-.36-.58-.73-1.15-1-1.74a24.23,24.23,0,0,1-2.31-5.77A150.63,150.63,0,0,1,119.22,21,13.29,13.29,0,0,0,120.47,24l.19.32A136.91,136.91,0,0,0,92.91,33.92Zm26-14.28a150.64,150.64,0,0,0-29.67,5.47,15.58,15.58,0,0,1,.24-6.71A109.57,109.57,0,0,1,119,16.53,9.25,9.25,0,0,0,119,19.64ZM90.7,32.82c.3.56.66,1.11,1,1.67A167.29,167.29,0,0,0,66.06,49.6c-.12.09-.23.19-.35.27-.55-.84-1-1.7-1.52-2.55a33.68,33.68,0,0,1-3.41-8.82A134.21,134.21,0,0,1,88.27,26.8,25.17,25.17,0,0,0,90.7,32.82ZM75,62.89A193.07,193.07,0,0,0,61.54,77.25q-3.43,4.08-6.62,8.33a80.71,80.71,0,0,1-12.06-14,165,165,0,0,1,22.5-19.82A67.08,67.08,0,0,0,75,62.89ZM54.12,86.64q-4,5.39-7.56,11a85.45,85.45,0,0,1-13-15.1c2.62-3.39,5.4-6.7,8.38-9.92A81.74,81.74,0,0,0,54.12,86.64ZM45.85,98.73q-3.94,6.27-7.27,12.65a87.17,87.17,0,0,1-13.77-16.1,130.06,130.06,0,0,1,7.9-11.67A86.6,86.6,0,0,0,45.85,98.73Zm-6.93,14.85a143.16,143.16,0,0,0,19.46,14.73,213.67,213.67,0,0,0-9.89,25.37,145.4,145.4,0,0,1-19.75-15.07A153,153,0,0,1,38.92,113.58Zm10.13,42.8a202.76,202.76,0,0,0,25.43,13.43c-2.25,7.61-4.28,15.45-5.77,23a195.6,195.6,0,0,1-24.52-13.05c.34-3.32.87-6.75,1.58-10.31C46.63,165.14,47.73,160.78,49.05,156.38Zm20.49,38.21a231.37,231.37,0,0,0,27.5,10l-2.76,9.48A219.16,219.16,0,0,1,68,204.52C68.39,201.37,68.9,198.05,69.54,194.59ZM98.31,205a233.41,233.41,0,0,0,28.56,6.31c-1.32,3.27-2.68,6.35-4.07,9.2a218.35,218.35,0,0,1-27.25-6Zm29.74,6.48a199.29,199.29,0,0,0,27.56,2.2,82.34,82.34,0,0,1-5.42,9.07A183.84,183.84,0,0,1,124,220.65C125.43,217.75,126.77,214.66,128.05,211.44Zm.52-1.3c2.77-7.11,5.26-14.79,7.44-22.39a205,205,0,0,0,28.67,2.34c-1.26,4.42-2.67,8.69-4.24,12.75-1.29,3.33-2.68,6.45-4.12,9.37A192.41,192.41,0,0,1,128.57,210.14Zm33.1-6.82c1.62-4.15,3.07-8.58,4.39-13.24a148.29,148.29,0,0,0,24.67-2c-.21.67-.39,1.35-.61,2a107.13,107.13,0,0,1-8.51,20,144.34,144.34,0,0,1-23.82,2.09C159.15,209.42,160.46,206.47,161.67,203.32Zm4.94-15.27a214.86,214.86,0,0,0,5.27-26.54,142.13,142.13,0,0,0,24.32-1.9A153.45,153.45,0,0,1,191.37,186,146.58,146.58,0,0,1,166.61,188.05Zm5.45-27.91q1-7.24,1.55-14.87A136.89,136.89,0,0,0,197,143.43q-.08,7.48-.71,14.77A142.24,142.24,0,0,1,172.06,160.14Zm1.64-16.25c.32-4.38.54-8.84.66-13.35a129.74,129.74,0,0,0,22.19-1.75q.48,6.66.48,13.25A138.88,138.88,0,0,1,173.7,143.89Zm23-27.24a193.71,193.71,0,0,0-3.62-19.32,67.57,67.57,0,0,0,14.08-4.22,164,164,0,0,1,8.32,28.8,80.05,80.05,0,0,1-17.68,5.26Q197.37,121.92,196.67,116.65Zm1.69,26.55a87.19,87.19,0,0,0,19.21-5.69,133.36,133.36,0,0,1,.38,14.36A88.51,88.51,0,0,1,197.67,158C198.1,153.11,198.32,148.18,198.36,143.2ZM217,122.69c1.21-.56,2.4-1.15,3.53-1.76a44,44,0,0,0,9-6.46,122.67,122.67,0,0,1,2.24,12.27,47.4,47.4,0,0,1-13,8.78Q218.15,129.15,217,122.69Zm12.78-12.77a129.64,129.64,0,0,0-10-25.29,23.62,23.62,0,0,0,5.07-8.1,110.79,110.79,0,0,1,11.55,24.77,27.4,27.4,0,0,1-6.17,10.53C230.05,111.19,229.91,110.56,229.73,109.92ZM219.1,83.39a136.42,136.42,0,0,0-16.92-24.6,17,17,0,0,0,3.58-5.8,124.31,124.31,0,0,1,18.17,22.12A22.31,22.31,0,0,1,219.1,83.39Zm-14-32.86a110.09,110.09,0,0,0-23.84-17.24,9.1,9.1,0,0,0,.22-2.66,115,115,0,0,1,23.67,13.78A15.54,15.54,0,0,1,205.09,50.53ZM181.25,29.08a13,13,0,0,0-1-2.87,70.38,70.38,0,0,1,21.23,9.44c.38.61.76,1.21,1.09,1.8a25.22,25.22,0,0,1,2.07,4.93A116.64,116.64,0,0,0,181.25,29.08Zm-.4,5.5A109.36,109.36,0,0,1,204.71,52a15.67,15.67,0,0,1-3.41,5.79,150.48,150.48,0,0,0-22.08-20.56A9.26,9.26,0,0,0,180.85,34.58Zm-1.62-1.39c-2.26,7.73-17.12,10.21-33.15,5.54-11.05-3.22-20.41-9.37-23.86-15.66a8.8,8.8,0,0,1-1.11-6.82,8.84,8.84,0,0,1,4.6-5.16c6.29-3.45,17.49-3.59,28.54-.37s20.42,9.35,23.87,15.65A8.88,8.88,0,0,1,179.23,33.19ZM121.58,11.68a116.69,116.69,0,0,0-26.85-1.35,25.25,25.25,0,0,1,4.38-3c.61-.33,1.26-.63,1.9-.94a70.42,70.42,0,0,1,22.93,3.44A13.58,13.58,0,0,0,121.58,11.68Zm-1,1.2a9.42,9.42,0,0,0-1.23,2.35A110.1,110.1,0,0,0,90,17a15.75,15.75,0,0,1,3.25-5.2A115.21,115.21,0,0,1,120.58,12.88ZM88.47,17.26a126.56,126.56,0,0,0-27.06,8.6,23,23,0,0,1,5.7-8.61,97.75,97.75,0,0,1,24.26-5.33A16.56,16.56,0,0,0,88.47,17.26Zm-.38,1.41A17,17,0,0,0,88,25.49,135.85,135.85,0,0,0,60.49,37.15a22.25,22.25,0,0,1,.4-9.6A126,126,0,0,1,88.09,18.67ZM63,48c.49.9,1,1.8,1.6,2.7a165.34,165.34,0,0,0-22.5,19.78c-.63-1-1.24-2-1.78-3A41.53,41.53,0,0,1,36.14,56.7c.67-.63,1.33-1.28,2-1.9A127.55,127.55,0,0,1,59.57,39.21,35.19,35.19,0,0,0,63,48ZM59.28,37.83a129.07,129.07,0,0,0-22,16c-.49.45-1,.9-1.44,1.36A27.41,27.41,0,0,1,36.32,43a111.15,111.15,0,0,1,23-14.67A23.77,23.77,0,0,0,59.28,37.83ZM39.18,68.08c.62,1.11,1.29,2.25,2,3.35-3,3.2-5.78,6.5-8.39,9.86-.65-1-1.28-2.06-1.84-3.09a44.61,44.61,0,0,1-4.44-11.29A123.75,123.75,0,0,1,35,57.75,44.43,44.43,0,0,0,39.18,68.08ZM29.79,78.84c.66,1.19,1.38,2.39,2.15,3.58A134.49,134.49,0,0,0,24,94c-.54-.88-1.06-1.76-1.55-2.65A46,46,0,0,1,17.68,79a115,115,0,0,1,7.78-10.79A46.47,46.47,0,0,0,29.79,78.84ZM24.05,96.56a89.81,89.81,0,0,0,13.86,16.09,156.5,156.5,0,0,0-10.25,25,90,90,0,0,1-14.19-16.78,107.46,107.46,0,0,1,9.83-23C23.54,97.41,23.8,97,24.05,96.56Zm3,43.18c-.25.89-.52,1.79-.76,2.68a108.71,108.71,0,0,0-3.54,20.85,87,87,0,0,1-13-15.21,89.85,89.85,0,0,1,3-24.66A96.58,96.58,0,0,0,27,139.74Zm-3.12,26.39a144,144,0,0,0,18.87,14.24,83.3,83.3,0,0,0-.4,10.45,133.82,133.82,0,0,1-18.15-13.93A79.4,79.4,0,0,1,23.91,166.13Zm9.88,20.27q4.14,3.07,8.65,5.95a64.59,64.59,0,0,0,.75,7.3A125.91,125.91,0,0,1,26,186.47a63.42,63.42,0,0,1-1.48-7.69C27.33,181.35,30.43,183.9,33.79,186.4Zm9.15-7.46a141.56,141.56,0,0,1-19-14.49,107.16,107.16,0,0,1,3.58-21.69c.18-.68.39-1.35.58-2a149.91,149.91,0,0,0,19.75,14.91c-1.39,4.63-2.54,9.16-3.41,13.52C43.79,172.53,43.29,175.78,42.94,178.94Zm25,26.95a219.43,219.43,0,0,0,26,9.45l-1.8,6.18a208.35,208.35,0,0,1-24.62-8.94Q67.57,209.4,67.91,205.89ZM93,223.17a210.61,210.61,0,0,0,25.16,5.62,38.44,38.44,0,0,1-7.86,9.3A164.38,164.38,0,0,1,90,233.59Zm.38-1.28,1.8-6.18a217.66,217.66,0,0,0,27,6q-1.59,3.15-3.24,5.86A204.11,204.11,0,0,1,93.38,221.89Zm30.05,0A186,186,0,0,0,149.29,224a60.39,60.39,0,0,1-4.68,5.74,175.07,175.07,0,0,1-24.36-2Q121.89,225,123.43,221.89ZM150.92,224c3.57,0,7.08-.13,10.51-.37q6.27-.47,12-1.42a60.89,60.89,0,0,1-5.39,5.68,125.81,125.81,0,0,1-21.62,1.86A60.87,60.87,0,0,0,150.92,224Zm.89-1.26a86.39,86.39,0,0,0,5.29-9.06c5.07,0,10-.25,14.75-.71,3-.31,6-.71,8.84-1.2a78.65,78.65,0,0,1-6.09,9A131.24,131.24,0,0,1,151.81,222.7Zm30.61-11.27A94,94,0,0,0,201,206.06a85.26,85.26,0,0,1-7.15,8.84,81.55,81.55,0,0,1-17.33,5.41A81.28,81.28,0,0,0,182.42,211.43Zm.87-1.61a110.13,110.13,0,0,0,8.1-19.27c.28-.88.53-1.79.8-2.68a95.6,95.6,0,0,0,20.81-6.1A89.65,89.65,0,0,1,202.43,204,88.51,88.51,0,0,1,183.29,209.82Zm9.52-24.12a155.49,155.49,0,0,0,4.74-26.32,92.12,92.12,0,0,0,20.35-6c0,.4,0,.8-.05,1.2a107.43,107.43,0,0,1-4.08,24.71A90.56,90.56,0,0,1,192.81,185.7Zm26.37-31.08c0-.62,0-1.26.07-1.89,1.3-.61,2.57-1.23,3.8-1.91a49,49,0,0,0,9.63-6.79,108.57,108.57,0,0,1-3.33,24.47,48.13,48.13,0,0,1-14,10A109.93,109.93,0,0,0,219.18,154.62Zm.12-3.37a132.7,132.7,0,0,0-.45-14.32c1.3-.6,2.55-1.22,3.76-1.88a46.5,46.5,0,0,0,9.34-6.62,113.37,113.37,0,0,1,.75,13.73A48.78,48.78,0,0,1,219.3,151.25Zm11.31-37.86a29.18,29.18,0,0,0,6.42-9.9,106.73,106.73,0,0,1,2.59,10.61A29.16,29.16,0,0,1,233,125.51C232.38,121.47,231.59,117.43,230.61,113.39Zm9.47,3.43a105.65,105.65,0,0,1,1.2,10.76c-.08.36-.18.72-.28,1.06a30.4,30.4,0,0,1-6.95,12.11,115.58,115.58,0,0,0-.9-13.48A31.17,31.17,0,0,0,240.08,116.82Zm-2.3-15.52a27.35,27.35,0,0,0,1-5.77c.86,3.77,1.53,7.58,2,11.4a28.21,28.21,0,0,1-.45,4.13q-1.08-5-2.58-9.73Zm-3.53-20.78a.66.66,0,0,0,.21.26c1,2.83,1.94,5.72,2.77,8.62A27.77,27.77,0,0,1,237,99a113.67,113.67,0,0,0-11.6-24.07,23.19,23.19,0,0,0,.64-9.35A72.1,72.1,0,0,1,234.25,80.52ZM226.92,64.2c.22.41.42.83.64,1.24-.68-1-1.37-2-2.09-2.94-.12-.49-.25-1-.41-1.5C225.69,62.06,226.33,63.12,226.92,64.2Zm-2.51,9.19a127.12,127.12,0,0,0-18.2-21.8,16.53,16.53,0,0,0,.44-6.05,98.26,98.26,0,0,1,17.58,17.54A22.94,22.94,0,0,1,224.41,73.39ZM216.8,48.7c1.22,1.58,2.39,3.19,3.53,4.85a37.2,37.2,0,0,1,2.92,6.2,102,102,0,0,0-16.91-16.1A24,24,0,0,0,204,37.38,74.94,74.94,0,0,1,216.8,48.7ZM199.07,30.15a120.71,120.71,0,0,1,9.6,9.05c-2-1.59-4-3.08-6.19-4.48A40.9,40.9,0,0,0,199,30.1Zm.52,2.76a69,69,0,0,0-20.19-8.27A22,22,0,0,0,177,21.5c7.76,1.38,12.14,2.69,17.23,5.61A49.85,49.85,0,0,1,199.59,32.91ZM183,18.74c1.35.8,2.67,1.61,4,2.46,1.12.79,2.21,1.59,3.25,2.41-4-1.64-8.26-2.63-14.79-3.73a36.87,36.87,0,0,0-4-3.27A27.09,27.09,0,0,1,183,18.74ZM155.39,6.79a120.81,120.81,0,0,1,22.28,9,26.45,26.45,0,0,0-8-.35A58.13,58.13,0,0,0,154.81,8.8,63,63,0,0,0,146.74,7a13,13,0,0,0-2-2.79Q150.07,5.25,155.39,6.79ZM141.89,3.7A9.34,9.34,0,0,1,145,6.76a50.49,50.49,0,0,0-6.37-.41,26.35,26.35,0,0,0-6.89-4C135.16,2.67,138.53,3.12,141.89,3.7ZM121,2c1.55,0,3.11,0,4.67.07h0a27.41,27.41,0,0,1,10.8,4.36,35.44,35.44,0,0,0-5.14.62C125.32,4.46,121.19,3,117,2.25,118.29,2.12,119.64,2,121,2Zm8.17,5.58a21.49,21.49,0,0,0-3.68,1.39,69,69,0,0,0-21.39-3.87,49.83,49.83,0,0,1,7.6-2C117.55,3.31,121.93,4.55,129.18,7.54ZM106.08,3c.1,0,.22,0,.32,0a40.61,40.61,0,0,0-5.58,2q-3.87,0-7.73.44A122.35,122.35,0,0,1,106.08,3ZM75.51,11.33c1.89-.8,3.8-1.54,5.72-2.24A75.42,75.42,0,0,1,98,6.44a24.66,24.66,0,0,0-5.37,4.06A101.37,101.37,0,0,0,69.75,15,36.28,36.28,0,0,1,75.51,11.33ZM64.22,16.77c1.1-.6,2.21-1.15,3.31-1.71-.39.33-.76.68-1.13,1-1.11.41-2.21.88-3.3,1.33C63.47,17.21,63.84,17,64.22,16.77ZM49,26.69a.63.63,0,0,0,.29-.1,71.65,71.65,0,0,1,15-8.2,23.3,23.3,0,0,0-4.5,8.24,113.07,113.07,0,0,0-22.7,14.05,27.48,27.48,0,0,1,5-8.22C44.26,30.47,46.57,28.53,49,26.69ZM29.56,45.35q3.71-4.47,7.83-8.54a26.65,26.65,0,0,0-2.25,5.41q-3.8,3.16-7.4,6.8A28.45,28.45,0,0,1,29.56,45.35Zm5-.91a29.44,29.44,0,0,0,.09,11.82,121.69,121.69,0,0,0-8.51,9A29.16,29.16,0,0,1,26.7,52C29.25,49.3,31.89,46.78,34.59,44.44ZM26,49.87c-.17.49-.34,1-.49,1.46-.91,1-1.8,2-2.7,3Q24.35,52.07,26,49.87ZM18.07,63.65c.22-.74.48-1.49.76-2.23q2.91-3.9,6-7.39a31.11,31.11,0,0,0,.22,12.55,116.06,116.06,0,0,0-7.76,10.51A30.33,30.33,0,0,1,18.07,63.65ZM21.3,92c.6,1.1,1.26,2.2,1.95,3.29-.37.63-.75,1.25-1.11,1.88a110.64,110.64,0,0,0-9.61,22.19c-.47-.79-.93-1.58-1.36-2.37a46.5,46.5,0,0,1-5.08-13.55A109.23,109.23,0,0,1,16.69,80.6,48.51,48.51,0,0,0,21.3,92ZM6,91.52c.29-1.06.54-2.15.86-3.22A120.2,120.2,0,0,1,16.36,65a32.09,32.09,0,0,0-.09,13.77A111.21,111.21,0,0,0,5.65,100.59,31.55,31.55,0,0,1,6,91.52Zm-2.19,10c.14,1,.31,2,.53,3.08-.71,2.29-1.31,4.59-1.86,6.92C2.72,108.21,3.19,104.89,3.76,101.56ZM2,120.8a102.16,102.16,0,0,1,2.93-13.59A52,52,0,0,0,9.42,118c.72,1.31,1.52,2.61,2.35,3.92a91.52,91.52,0,0,0-3.39,24,47.55,47.55,0,0,1-6.05-15.06C2.08,127.48,2,124.15,2,120.8Zm1.11,17.42a56.89,56.89,0,0,0,5.31,10.2,89,89,0,0,0,.85,10.3,51.05,51.05,0,0,1-3.74-7.92A117.27,117.27,0,0,1,3.12,138.22ZM7.9,159c.6,1,1.24,2.11,1.93,3.15.3,1.64.65,3.26,1,4.89C9.79,164.33,8.79,161.64,7.9,159Zm1.91-8.5A92.83,92.83,0,0,0,22.61,165a81.65,81.65,0,0,0,.18,10.54A81.18,81.18,0,0,1,11.1,161.66,86.47,86.47,0,0,1,9.81,150.45Zm4.08,22.35c-.85-2.64-1.58-5.28-2.17-8a87.47,87.47,0,0,0,11.22,12.53,64.16,64.16,0,0,0,1.22,7.4A79.26,79.26,0,0,1,13.89,172.8Zm2.9,6.67c-.32-.58-.61-1.2-.93-1.79a89,89,0,0,0,8.91,9.49,53.18,53.18,0,0,0,3.44,9.42A121.69,121.69,0,0,1,16.79,179.47Zm20,26.81c-1.3-1.31-2.57-2.64-3.8-4a49,49,0,0,1-6.38-13.4,129.5,129.5,0,0,0,16.87,12.55,47.63,47.63,0,0,0,4.68,13.48A104.76,104.76,0,0,1,36.8,206.28Zm12,10.58.84.53.14.22Zm-3.73-14.48a177.24,177.24,0,0,0,21.19,11.1,43.06,43.06,0,0,0,1.29,11.94,137.79,137.79,0,0,1-17-9A44.39,44.39,0,0,1,45.06,202.38ZM52,219.26a.68.68,0,0,0,.09-.37,143.37,143.37,0,0,0,16,8.24,19.15,19.15,0,0,0,1,2.3A119.88,119.88,0,0,1,52,219.26Zm35.7,17.42a121,121,0,0,1-16.41-6.19,16.18,16.18,0,0,1-1.48-2.63,169.93,169.93,0,0,0,18.52,6.64ZM69.12,226.13A38.57,38.57,0,0,1,67.49,214a209.92,209.92,0,0,0,24.24,8.78l-3,10.42A167.41,167.41,0,0,1,69.12,226.13ZM89,237.06l.63-2.19a170.55,170.55,0,0,0,19.21,4.33,15.37,15.37,0,0,1-2.7,1.44A119.87,119.87,0,0,1,89,237.06Zm39.46,4.43a118.77,118.77,0,0,1-19.92-.56,20.2,20.2,0,0,0,2.11-1.44,145.09,145.09,0,0,0,17.94,1.66A.71.71,0,0,0,128.42,241.49ZM112,238.37a43.17,43.17,0,0,0,7.49-9.39,178.79,178.79,0,0,0,23.85,2,44.63,44.63,0,0,1-12.15,8.85A143,143,0,0,1,112,238.37Zm19.24,2.93.24-.11c.32,0,.65,0,1,0Zm16.67-2.52a103.59,103.59,0,0,1-13.85,1.07A47.22,47.22,0,0,0,145.18,231a132.14,132.14,0,0,0,21-1.53,49.57,49.57,0,0,1-12.3,7.77Q150.92,238.11,147.91,238.78Zm12.84-3.64a54.21,54.21,0,0,0,7.88-6,89.86,89.86,0,0,0,12.6-3.23A120.61,120.61,0,0,1,160.75,235.14Zm9.68-7.75a67.16,67.16,0,0,0,5-5.57,88.34,88.34,0,0,0,16.22-4.57c-1.93,1.94-4,3.78-6.09,5.54A79.25,79.25,0,0,1,170.43,227.39Zm20.86-8q1.77-1.69,3.43-3.49c1.1-.5,2.17-1,3.2-1.57C195.77,216.14,193.56,217.84,191.29,219.43Zm13-10.62a49.88,49.88,0,0,1-7.27,4.57,85.23,85.23,0,0,0,6.32-8.33,56.88,56.88,0,0,0,10-5.79A120.23,120.23,0,0,1,204.26,208.81Zm13.62-15.28a46.67,46.67,0,0,1-13.14,9.36A92.1,92.1,0,0,0,214.66,181c1.39-.65,2.76-1.32,4.06-2a51.47,51.47,0,0,0,9.58-6.67,101.26,101.26,0,0,1-4.88,13.15C221.68,188.23,219.83,190.93,217.88,193.53Zm10.22-16.25c.78-2.25,1.51-4.5,2.13-6.79q1.16-1.19,2.19-2.43Q230.44,172.8,228.1,177.28Zm8.8-21.9c-.21.72-.44,1.44-.66,2.17a31,31,0,0,1-5,8.77A109.77,109.77,0,0,0,234,142.73a32.64,32.64,0,0,0,7.29-10.93A121.46,121.46,0,0,1,236.9,155.38Z"/></g></g></g></svg>