<svg xmlns="http://www.w3.org/2000/svg" viewBox="0 0 381.99 426.64"><defs><style>.cls-1{fill:#8fa3bd;}</style></defs><g id="Layer_2" data-name="Layer 2"><g id="Shapes"><g id="_04" data-name="04"><path class="cls-1" d="M191,42.86A110.06,110.06,0,1,0,301.05,152.92,110.19,110.19,0,0,0,191,42.86ZM167.41,52.5c-10.35,9-19,23.67-24.82,42.2a127,127,0,0,1-28.22-10.78A103.29,103.29,0,0,1,167.41,52.5ZM109.88,89.28a132,132,0,0,0,30.79,12,198.89,198.89,0,0,0-6.38,48.18H87.91A102.63,102.63,0,0,1,109.88,89.28Zm0,127.28a102.65,102.65,0,0,1-22-60.2h46.38a199,199,0,0,0,6.38,48.19A131.54,131.54,0,0,0,109.87,216.56Zm4.5,5.37a127.23,127.23,0,0,1,28.22-10.79c5.85,18.53,14.47,33.25,24.82,42.2A103.24,103.24,0,0,1,114.37,221.93Zm73.18,33.89c-16-2.26-29.88-20.13-38.21-46.28a197.06,197.06,0,0,1,38.21-4.26Zm0-57.42a203.54,203.54,0,0,0-40.15,4.53,192.39,192.39,0,0,1-6.23-46.57h46.38Zm0-48.92H141.17a192.39,192.39,0,0,1,6.23-46.57,203,203,0,0,0,40.15,4.54Zm0-48.91a197.22,197.22,0,0,1-38.21-4.27c8.33-26.15,22.25-44,38.21-46.28Zm80.07-16.66A126.56,126.56,0,0,1,239.4,94.7c-5.85-18.53-14.47-33.25-24.82-42.2A103.27,103.27,0,0,1,267.62,83.91ZM194.44,50c16,2.27,29.88,20.13,38.21,46.29a197.06,197.06,0,0,1-38.21,4.26Zm0,57.43a202.79,202.79,0,0,0,40.15-4.54,192.46,192.46,0,0,1,6.23,46.57H194.44Zm0,48.91h46.38a192.9,192.9,0,0,1-6.23,46.58,203,203,0,0,0-40.15-4.54Zm0,99.46V205.28a196.62,196.62,0,0,1,38.21,4.27C224.32,235.7,210.4,253.56,194.44,255.82Zm20.14-2.48c10.35-9,19-23.67,24.82-42.19a126.55,126.55,0,0,1,28.22,10.78A103.2,103.2,0,0,1,214.58,253.34Zm57.53-36.78a132.43,132.43,0,0,0-30.79-12,199,199,0,0,0,6.38-48.19h46.38A102.63,102.63,0,0,1,272.11,216.56Zm22-67.08H247.7a198.89,198.89,0,0,0-6.38-48.18,132.25,132.25,0,0,0,30.8-12A102.62,102.62,0,0,1,294.08,149.48Z"/><path class="cls-1" d="M371.08,199.24c-.72-.83-1.44-1.65-2.14-2.48-3.72-4.36-7.49-8.23-11.5-12.33l-.16-.16-2.9-3c-2.75-2.84-6-6.28-9.52-10.32-5.18-6-4.78-9-3.89-15.66.11-.83.23-1.68.33-2.54,1.65-14.1-20.25-70.08-27.42-81.58-14.66-24.43-32.72-42.84-53.67-54.72A123.7,123.7,0,0,0,228.42,3.9,209.78,209.78,0,0,0,191,0a209.86,209.86,0,0,0-37.46,3.91,123.69,123.69,0,0,0-31.74,12.55c-21,11.88-39,30.29-53.66,54.7-7.18,11.52-29.08,67.5-27.43,81.6.1.87.22,1.71.34,2.64.88,6.58,1.28,9.58-3.9,15.56-3.5,4-6.77,7.48-9.52,10.32l-3,3.05-.1.09c-4,4.1-7.77,8-11.5,12.34-.7.83-1.42,1.65-2.14,2.48-6.65,7.56-17.76,20.23-5.19,33.94,5.15,5.62,10.64,7.81,14.7,9.44.28.11.69.27,1.1.45a15.39,15.39,0,0,1-1.73,2.39c-2.47,3-7.06,8.62-3.51,18.42a27,27,0,0,0,6.11,10.05c-3,6.72-2.63,12.56,1.09,16.93A39.78,39.78,0,0,0,27.69,295l.93.82c-.29.68-.76,1.66-1.21,2.62-4.28,9-13.17,27.71.28,44.62,13.72,17.25,48.11,16.27,64.38,13.34q1.44-.26,2.34-.48c.63-.15,1.24-.32,1.82-.48.74-.2,1.44-.4,2-.58l.12,0c.48-.14,1.31-.39,2.1-.6a32.21,32.21,0,0,1,.75,4.33c1.81,15.47,11.64,45.64,16.36,60.14l2.58,7.91H261.81l2.57-7.91c4.73-14.5,14.55-44.67,16.37-60.14a32.21,32.21,0,0,1,.75-4.33l2.2.63c.61.17,1.31.38,2.06.58.58.16,1.19.33,1.82.48s1.38.31,2.34.48c16.27,2.93,50.66,3.91,64.38-13.34,13.45-16.91,4.56-35.63.28-44.63-.45-.95-.92-1.93-1.21-2.61l1-.88a39.47,39.47,0,0,0,4.15-4.11c3.72-4.37,4.09-10.21,1.09-16.93a27,27,0,0,0,6.11-10.06c3.55-9.79-1-15.4-3.51-18.41a15.39,15.39,0,0,1-1.73-2.39l1.15-.47c4-1.61,9.5-3.8,14.65-9.42C388.84,219.47,377.73,206.8,371.08,199.24ZM372,229.3c-4.26,4.65-9,6.56-12.53,8a19.44,19.44,0,0,0-4.15,2l-1.12.86v1.42a6.63,6.63,0,0,0,.09,1c.48,2.92,2,4.75,3.43,6.53,2.22,2.72,5,6.11,2.56,12.83a19.84,19.84,0,0,1-6,9.06l-1.88,1.49,1.13,2.12c2,3.72,3.69,8.91.61,12.55a35.65,35.65,0,0,1-3.6,3.54c-2.52,2.24-3.91,3.47-2.76,6.64.32.89.91,2.14,1.61,3.6,3.77,7.94,11.63,24.48.41,38.59-13.9,17.48-53.44,12.59-60.66,10.9l-.19,0c-1.3-.32-2.58-.69-3.65-1l-.14,0c-3.67-1.07-4.81-1.34-5.82-1.17l-.83.13-.63.56c-1.32,1.17-2.27,4.23-2.84,9.07-1.74,14.9-11.45,44.71-16.12,59l-1.28,3.95H124.35L123.07,417c-4.67-14.33-14.38-44.13-16.12-59-.57-4.85-1.52-7.91-2.84-9.08l-.63-.56-.83-.13c-1-.16-2.15.1-5.85,1.17l-.14.05c-1,.3-2.32.67-3.62,1l.25,1.05-.45-1c-7.21,1.69-46.75,6.58-60.65-10.9-11.22-14.11-3.36-30.64.41-38.59.67-1.39,1.29-2.71,1.61-3.6,1.15-3.17-.24-4.4-2.76-6.64a35.67,35.67,0,0,1-3.6-3.54c-3.08-3.64-1.37-8.83.61-12.55l1.13-2.12L27.7,271a19.91,19.91,0,0,1-6-9.06c-2.43-6.72.34-10.11,2.56-12.83,1.45-1.78,3-3.62,3.43-6.53a6.63,6.63,0,0,0,.09-1v-1.42l-1.12-.86a19.44,19.44,0,0,0-4.15-2c-3.49-1.4-8.27-3.31-12.53-8C.87,219.39,8.49,210.7,15.22,203c.74-.85,1.48-1.69,2.21-2.54,3.21-3.77,6.6-7.29,9.79-10.57l2.92-3c3.51-3.6,7.27-7.51,11.33-12.2,6.87-7.94,6.19-13,5.24-20.18-.11-.8-.21-1.61-.31-2.44C45,140.07,65.82,85.71,73,74.16c21-35,48.75-56.79,82.49-64.83,2.44-.58,4.86-1.09,7.17-1.49A153,153,0,0,1,191,5.73a152.84,152.84,0,0,1,28.3,2.11c2.31.4,4.72.91,7.17,1.49,33.74,8,61.49,29.85,82.49,64.85,7.2,11.53,28,65.89,26.62,77.92-.1.83-.2,1.64-.33,2.54-.93,7.05-1.61,12.14,5.26,20.08,4.06,4.69,7.82,8.6,11.33,12.2l2.92,3c3.19,3.28,6.58,6.8,9.79,10.57.73.85,1.47,1.69,2.21,2.54C373.5,210.69,381.12,219.39,372,229.3Z"/></g></g></g></svg>