<svg xmlns="http://www.w3.org/2000/svg" viewBox="0 0 400 400" fill="none">
  <g stroke="#8fa3bd" stroke-width="1" stroke-dasharray="4 5" opacity=".7">
    <ellipse cx="120" cy="120" rx="88" ry="66" transform="rotate(-14 120 120)"/>
    <ellipse cx="286" cy="150" rx="72" ry="56" transform="rotate(10 286 150)"/>
    <ellipse cx="196" cy="296" rx="92" ry="60" transform="rotate(-5 196 296)"/>
  </g>
  <g stroke="#8fa3bd" stroke-width=".8" opacity=".5">
    <line x1="120" y1="120" x2="286" y2="150"/><line x1="286" y1="150" x2="196" y2="296"/><line x1="120" y1="120" x2="196" y2="296"/>
  </g>
  <g fill="#8fa3bd">
    <circle cx="96" cy="98" r="5"/><circle cx="140" cy="126" r="7"/><circle cx="112" cy="152" r="4"/><circle cx="160" cy="92" r="4"/><circle cx="76" cy="132" r="4.5"/>
    <circle cx="268" cy="132" r="6"/><circle cx="304" cy="162" r="4.5"/><circle cx="316" cy="120" r="4"/><circle cx="256" cy="176" r="4"/>
    <circle cx="168" cy="284" r="5"/><circle cx="210" cy="312" r="6.5"/><circle cx="238" cy="272" r="4"/><circle cx="150" cy="316" r="4"/><circle cx="252" cy="316" r="4.5"/>
  </g>
</svg>
